<?xml version="1.0" encoding="UTF-8"?>
<!DOCTYPE svg PUBLIC "-//W3C//DTD SVG 1.1//EN" "http://www.w3.org/Graphics/SVG/1.1/DTD/svg11.dtd">
<svg xmlns="http://www.w3.org/2000/svg" xml:space="preserve" width="158px" height="48px" version="1.1" style="shape-rendering:geometricPrecision; text-rendering:geometricPrecision; image-rendering:optimizeQuality; fill-rule:evenodd; clip-rule:evenodd"
viewBox="0 0 26.39 8.03"
 xmlns:xlink="http://www.w3.org/1999/xlink">
 <defs>
  <style type="text/css">
   <![CDATA[
    .fil0 {fill:black;fill-rule:nonzero}
    .fil1 {fill:white;fill-rule:nonzero}
   ]]>
  </style>
 </defs>
 <g id="Layer_x0020_1">
  <metadata id="CorelCorpID_0Corel-Layer"/>
  <g id="_2498495561728">
   <path class="fil0" d="M25.37 8.03l-24.35 0c-0.56,0 -1.02,-0.46 -1.02,-1.02l0 -5.99c0,-0.56 0.46,-1.02 1.02,-1.02l24.35 0c0.57,0 1.02,0.46 1.02,1.02l0 5.99c0,0.56 -0.45,1.02 -1.02,1.02z"/>
   <path class="fil1" d="M2.4 3.28c-0.43,0.74 -0.16,1.87 0.32,2.55 0.23,0.35 0.47,0.65 0.8,0.65 0.01,0 0.01,0 0.02,0 0.15,0 0.26,-0.05 0.37,-0.1 0.12,-0.05 0.25,-0.1 0.44,-0.1 0.19,0 0.31,0.05 0.42,0.1 0.12,0.05 0.23,0.1 0.41,0.1 0.37,-0.01 0.59,-0.34 0.79,-0.63 0.21,-0.31 0.32,-0.6 0.35,-0.72l0 0c0.01,-0.02 0,-0.04 -0.02,-0.05 0,0 0,0 0,0 -0.07,-0.03 -0.64,-0.28 -0.64,-0.97 -0.01,-0.56 0.42,-0.86 0.51,-0.91l0 -0.01c0.01,0 0.02,-0.01 0.02,-0.02 0,-0.01 0,-0.03 0,-0.04 -0.3,-0.43 -0.76,-0.5 -0.95,-0.51 -0.02,0 -0.05,0 -0.08,0 -0.21,0 -0.42,0.08 -0.59,0.15 -0.11,0.04 -0.21,0.08 -0.28,0.08 -0.08,0 -0.18,-0.04 -0.3,-0.08 -0.15,-0.07 -0.33,-0.14 -0.51,-0.14 -0.01,0 -0.01,0 -0.02,0 -0.43,0.01 -0.84,0.26 -1.06,0.65z"/>
   <path class="fil1" d="M5.24 1.42c-0.26,0.01 -0.57,0.17 -0.76,0.39 -0.16,0.18 -0.31,0.49 -0.27,0.8 0,0.02 0.02,0.04 0.03,0.04 0.02,0 0.04,0 0.06,0 0.25,0 0.53,-0.14 0.72,-0.37 0.2,-0.24 0.3,-0.55 0.27,-0.82 0,-0.03 -0.02,-0.04 -0.05,-0.04z"/>
   <path class="fil1" d="M8.75 3c0.11,0 0.21,-0.02 0.3,-0.07 0.09,-0.04 0.16,-0.11 0.21,-0.19 0.04,-0.08 0.07,-0.18 0.07,-0.28 0,-0.11 -0.03,-0.2 -0.07,-0.28 -0.05,-0.09 -0.12,-0.15 -0.21,-0.2 -0.09,-0.04 -0.19,-0.07 -0.3,-0.07l-0.4 0 0 1.09 0.4 0zm-0.49 -1.17l0.49 0c0.13,0 0.25,0.03 0.35,0.08 0.1,0.06 0.18,0.13 0.23,0.22 0.06,0.1 0.09,0.21 0.09,0.33 0,0.12 -0.03,0.23 -0.09,0.32 -0.05,0.1 -0.13,0.17 -0.23,0.22 -0.1,0.06 -0.22,0.09 -0.35,0.09l-0.49 0 0 -1.26z"/>
   <path class="fil1" d="M10.27 2.96c0.05,-0.03 0.1,-0.08 0.13,-0.14 0.03,-0.06 0.05,-0.13 0.05,-0.2 0,-0.08 -0.02,-0.15 -0.05,-0.21 -0.03,-0.06 -0.08,-0.1 -0.13,-0.14 -0.06,-0.03 -0.13,-0.05 -0.2,-0.05 -0.07,0 -0.13,0.02 -0.19,0.05 -0.06,0.04 -0.1,0.08 -0.13,0.14 -0.04,0.06 -0.05,0.13 -0.05,0.21 0,0.07 0.01,0.14 0.05,0.2 0.03,0.06 0.07,0.11 0.13,0.14 0.06,0.04 0.12,0.05 0.19,0.05 0.07,0 0.14,-0.01 0.2,-0.05zm-0.44 0.07c-0.07,-0.04 -0.12,-0.1 -0.16,-0.17 -0.04,-0.07 -0.06,-0.15 -0.06,-0.24 0,-0.09 0.02,-0.17 0.06,-0.25 0.04,-0.07 0.09,-0.13 0.16,-0.17 0.08,-0.04 0.15,-0.06 0.24,-0.06 0.09,0 0.17,0.02 0.24,0.06 0.07,0.04 0.13,0.1 0.17,0.17 0.04,0.08 0.06,0.16 0.06,0.25 0,0.09 -0.02,0.17 -0.06,0.24 -0.04,0.07 -0.1,0.13 -0.17,0.17 -0.07,0.04 -0.15,0.06 -0.24,0.06 -0.09,0 -0.16,-0.02 -0.24,-0.06z"/>
   <polygon class="fil1" points="12.13,2.15 11.77,3.09 11.69,3.09 11.37,2.27 11.06,3.09 10.97,3.09 10.62,2.15 10.71,2.15 11.02,2.99 11.34,2.15 11.41,2.15 11.73,2.98 12.05,2.15 "/>
   <path class="fil1" d="M13.07 2.25c0.07,0.06 0.1,0.16 0.1,0.29l0 0.55 -0.09 0 0 -0.54c0,-0.11 -0.02,-0.19 -0.08,-0.24 -0.05,-0.06 -0.12,-0.09 -0.22,-0.09 -0.11,0 -0.2,0.04 -0.26,0.1 -0.06,0.07 -0.09,0.16 -0.09,0.27l0 0.5 -0.09 0 0 -0.94 0.08 0 0 0.2c0.03,-0.06 0.08,-0.11 0.15,-0.15 0.06,-0.04 0.14,-0.06 0.22,-0.06 0.12,0 0.21,0.04 0.28,0.11z"/>
   <polygon class="fil1" points="13.54,3.09 13.63,3.09 13.63,1.76 13.54,1.76 "/>
   <path class="fil1" d="M14.57 2.96c0.05,-0.03 0.1,-0.08 0.13,-0.14 0.04,-0.06 0.05,-0.13 0.05,-0.2 0,-0.08 -0.01,-0.15 -0.05,-0.21 -0.03,-0.06 -0.08,-0.1 -0.13,-0.14 -0.06,-0.03 -0.12,-0.05 -0.19,-0.05 -0.08,0 -0.14,0.02 -0.2,0.05 -0.05,0.04 -0.1,0.08 -0.13,0.14 -0.03,0.06 -0.05,0.13 -0.05,0.21 0,0.07 0.02,0.14 0.05,0.2 0.03,0.06 0.08,0.11 0.13,0.14 0.06,0.04 0.12,0.05 0.2,0.05 0.07,0 0.13,-0.01 0.19,-0.05zm-0.43 0.07c-0.07,-0.04 -0.13,-0.1 -0.17,-0.17 -0.04,-0.07 -0.06,-0.15 -0.06,-0.24 0,-0.09 0.02,-0.17 0.06,-0.25 0.04,-0.07 0.1,-0.13 0.17,-0.17 0.07,-0.04 0.15,-0.06 0.24,-0.06 0.08,0 0.16,0.02 0.23,0.06 0.08,0.04 0.13,0.1 0.17,0.17 0.04,0.08 0.06,0.16 0.06,0.25 0,0.09 -0.02,0.17 -0.06,0.24 -0.04,0.07 -0.09,0.13 -0.17,0.17 -0.07,0.04 -0.15,0.06 -0.23,0.06 -0.09,0 -0.17,-0.02 -0.24,-0.06z"/>
   <path class="fil1" d="M15.58 2.97c0.05,-0.04 0.1,-0.09 0.12,-0.16l0 -0.18 -0.32 0c-0.09,0 -0.15,0.02 -0.2,0.05 -0.04,0.04 -0.06,0.08 -0.06,0.14 0,0.06 0.03,0.11 0.07,0.15 0.05,0.03 0.11,0.05 0.19,0.05 0.08,0 0.15,-0.02 0.2,-0.05zm0.12 -0.74c0.06,0.06 0.09,0.15 0.09,0.26l0 0.6 -0.08 0 0 -0.17c-0.03,0.05 -0.08,0.1 -0.13,0.13 -0.06,0.03 -0.13,0.04 -0.21,0.04 -0.1,0 -0.19,-0.02 -0.25,-0.07 -0.06,-0.05 -0.09,-0.11 -0.09,-0.19 0,-0.08 0.03,-0.15 0.09,-0.19 0.05,-0.05 0.14,-0.08 0.26,-0.08l0.32 0 0 -0.07c0,-0.09 -0.02,-0.15 -0.07,-0.2 -0.04,-0.05 -0.11,-0.07 -0.2,-0.07 -0.07,0 -0.13,0.01 -0.18,0.03 -0.06,0.03 -0.11,0.05 -0.15,0.09l-0.04 -0.06c0.04,-0.05 0.1,-0.08 0.17,-0.1 0.06,-0.03 0.13,-0.04 0.2,-0.04 0.12,0 0.21,0.03 0.27,0.09z"/>
   <path class="fil1" d="M16.72 2.96c0.06,-0.03 0.1,-0.08 0.14,-0.14 0.03,-0.06 0.05,-0.13 0.05,-0.2 0,-0.08 -0.02,-0.15 -0.05,-0.21 -0.04,-0.06 -0.08,-0.1 -0.14,-0.14 -0.05,-0.03 -0.12,-0.05 -0.19,-0.05 -0.07,0 -0.14,0.02 -0.19,0.05 -0.06,0.04 -0.1,0.08 -0.14,0.14 -0.03,0.06 -0.05,0.13 -0.05,0.21 0,0.07 0.02,0.14 0.05,0.2 0.04,0.06 0.08,0.11 0.14,0.14 0.05,0.04 0.12,0.05 0.19,0.05 0.07,0 0.14,-0.01 0.19,-0.05zm0.28 -1.2l0 1.33 -0.09 0 0 -0.23c-0.04,0.08 -0.09,0.13 -0.16,0.17 -0.07,0.04 -0.14,0.06 -0.23,0.06 -0.08,0 -0.16,-0.02 -0.23,-0.06 -0.07,-0.04 -0.13,-0.1 -0.17,-0.17 -0.04,-0.07 -0.06,-0.15 -0.06,-0.24 0,-0.09 0.02,-0.18 0.06,-0.25 0.04,-0.07 0.1,-0.13 0.17,-0.17 0.07,-0.04 0.15,-0.06 0.23,-0.06 0.09,0 0.16,0.02 0.23,0.06 0.07,0.04 0.12,0.1 0.16,0.17l0 -0.61 0.09 0z"/>
   <path class="fil1" d="M18.39 2.96c0.06,-0.03 0.1,-0.08 0.14,-0.14 0.03,-0.06 0.05,-0.13 0.05,-0.2 0,-0.08 -0.02,-0.15 -0.05,-0.21 -0.04,-0.06 -0.08,-0.1 -0.14,-0.14 -0.05,-0.03 -0.12,-0.05 -0.19,-0.05 -0.07,0 -0.14,0.02 -0.19,0.05 -0.06,0.04 -0.1,0.08 -0.14,0.14 -0.03,0.06 -0.05,0.13 -0.05,0.21 0,0.07 0.02,0.14 0.05,0.2 0.04,0.06 0.08,0.11 0.14,0.14 0.05,0.04 0.12,0.05 0.19,0.05 0.07,0 0.14,-0.01 0.19,-0.05zm-0.43 0.07c-0.07,-0.04 -0.13,-0.1 -0.17,-0.17 -0.04,-0.07 -0.06,-0.15 -0.06,-0.24 0,-0.09 0.02,-0.17 0.06,-0.25 0.04,-0.07 0.1,-0.13 0.17,-0.17 0.07,-0.04 0.15,-0.06 0.24,-0.06 0.09,0 0.17,0.02 0.24,0.06 0.07,0.04 0.13,0.1 0.17,0.17 0.04,0.08 0.06,0.16 0.06,0.25 0,0.09 -0.02,0.17 -0.06,0.24 -0.04,0.07 -0.1,0.13 -0.17,0.17 -0.07,0.04 -0.15,0.06 -0.24,0.06 -0.09,0 -0.17,-0.02 -0.24,-0.06z"/>
   <path class="fil1" d="M19.68 2.25c0.07,0.06 0.1,0.16 0.1,0.29l0 0.55 -0.09 0 0 -0.54c0,-0.11 -0.02,-0.19 -0.08,-0.24 -0.05,-0.06 -0.13,-0.09 -0.22,-0.09 -0.11,0 -0.2,0.04 -0.26,0.1 -0.06,0.07 -0.1,0.16 -0.1,0.27l0 0.5 -0.09 0 0 -0.94 0.09 0 0 0.2c0.03,-0.06 0.08,-0.11 0.14,-0.15 0.07,-0.04 0.14,-0.06 0.23,-0.06 0.12,0 0.21,0.04 0.28,0.11z"/>
   <path class="fil1" d="M21.08 3.03c-0.03,0.02 -0.06,0.03 -0.09,0.05 -0.03,0.01 -0.07,0.01 -0.11,0.01 -0.08,0 -0.14,-0.02 -0.18,-0.06 -0.05,-0.05 -0.07,-0.11 -0.07,-0.19l0 -0.61 -0.17 0 0 -0.08 0.17 0 0 -0.2 0.09 0 0 0.2 0.3 0 0 0.08 -0.3 0 0 0.6c0,0.06 0.01,0.11 0.04,0.14 0.03,0.03 0.08,0.05 0.13,0.05 0.06,0 0.11,-0.02 0.15,-0.06l0.04 0.07z"/>
   <path class="fil1" d="M22.06 2.25c0.07,0.06 0.1,0.16 0.1,0.29l0 0.55 -0.09 0 0 -0.54c0,-0.11 -0.03,-0.19 -0.08,-0.24 -0.05,-0.06 -0.13,-0.09 -0.22,-0.09 -0.11,0 -0.2,0.04 -0.26,0.1 -0.06,0.07 -0.1,0.16 -0.1,0.27l0 0.5 -0.09 0 0 -1.33 0.09 0 0 0.59c0.04,-0.07 0.08,-0.12 0.15,-0.15 0.06,-0.04 0.14,-0.06 0.22,-0.06 0.12,0 0.21,0.04 0.28,0.11z"/>
   <path class="fil1" d="M22.7 2.27c-0.05,0.02 -0.09,0.07 -0.13,0.12 -0.03,0.05 -0.05,0.11 -0.05,0.18l0.72 0c-0.01,-0.07 -0.03,-0.13 -0.06,-0.18 -0.03,-0.05 -0.07,-0.09 -0.12,-0.12 -0.06,-0.03 -0.12,-0.05 -0.18,-0.05 -0.07,0 -0.13,0.02 -0.18,0.05zm0.62 0.37l-0.8 0c0,0.07 0.02,0.14 0.05,0.19 0.04,0.06 0.08,0.1 0.14,0.14 0.06,0.03 0.13,0.04 0.2,0.04 0.06,0 0.12,-0.01 0.17,-0.03 0.06,-0.02 0.1,-0.06 0.13,-0.1l0.05 0.06c-0.04,0.05 -0.09,0.09 -0.15,0.11 -0.06,0.03 -0.13,0.04 -0.2,0.04 -0.09,0 -0.17,-0.02 -0.25,-0.06 -0.07,-0.04 -0.13,-0.1 -0.17,-0.17 -0.04,-0.07 -0.06,-0.15 -0.06,-0.24 0,-0.09 0.02,-0.17 0.06,-0.25 0.04,-0.07 0.09,-0.13 0.16,-0.17 0.07,-0.04 0.14,-0.06 0.23,-0.06 0.08,0 0.16,0.02 0.23,0.06 0.06,0.04 0.12,0.1 0.16,0.17 0.03,0.07 0.05,0.15 0.05,0.24l0 0.03z"/>
   <path class="fil1" d="M9.45 5.55l-0.4 -0.94 -0.4 0.94 0.8 0zm0.13 0.31l-1.07 0 -0.21 0.49 -0.41 0 0.96 -2.14 0.4 0 0.96 2.14 -0.41 0 -0.22 -0.49z"/>
   <path class="fil1" d="M11.66 5.91c0.09,-0.1 0.14,-0.22 0.14,-0.37 0,-0.16 -0.05,-0.28 -0.14,-0.37 -0.09,-0.1 -0.21,-0.14 -0.35,-0.14 -0.09,0 -0.17,0.02 -0.25,0.06 -0.07,0.04 -0.13,0.1 -0.17,0.18 -0.04,0.08 -0.06,0.16 -0.06,0.27 0,0.1 0.02,0.19 0.06,0.27 0.04,0.07 0.1,0.13 0.17,0.18 0.08,0.04 0.16,0.06 0.25,0.06 0.14,0 0.26,-0.05 0.35,-0.14zm0.12 -1.1c0.13,0.06 0.23,0.16 0.3,0.29 0.07,0.13 0.11,0.27 0.11,0.44 0,0.16 -0.04,0.31 -0.11,0.44 -0.07,0.12 -0.17,0.22 -0.3,0.29 -0.12,0.07 -0.27,0.11 -0.42,0.11 -0.22,0 -0.4,-0.08 -0.53,-0.22l0 0.79 -0.38 0 0 -2.23 0.36 0 0 0.21c0.07,-0.07 0.15,-0.13 0.24,-0.17 0.09,-0.04 0.19,-0.06 0.31,-0.06 0.15,0 0.3,0.04 0.42,0.11z"/>
   <path class="fil1" d="M13.76 5.91c0.09,-0.1 0.14,-0.22 0.14,-0.37 0,-0.16 -0.05,-0.28 -0.14,-0.37 -0.09,-0.1 -0.21,-0.14 -0.35,-0.14 -0.09,0 -0.17,0.02 -0.24,0.06 -0.08,0.04 -0.14,0.1 -0.18,0.18 -0.04,0.08 -0.06,0.16 -0.06,0.27 0,0.1 0.02,0.19 0.06,0.27 0.04,0.07 0.1,0.13 0.18,0.18 0.07,0.04 0.15,0.06 0.24,0.06 0.14,0 0.26,-0.05 0.35,-0.14zm0.12 -1.1c0.13,0.06 0.23,0.16 0.3,0.29 0.07,0.13 0.11,0.27 0.11,0.44 0,0.16 -0.04,0.31 -0.11,0.44 -0.07,0.12 -0.17,0.22 -0.3,0.29 -0.12,0.07 -0.26,0.11 -0.42,0.11 -0.22,0 -0.4,-0.08 -0.53,-0.22l0 0.79 -0.38 0 0 -2.23 0.36 0 0 0.21c0.07,-0.07 0.15,-0.13 0.24,-0.17 0.09,-0.04 0.19,-0.06 0.31,-0.06 0.16,0 0.3,0.04 0.42,0.11z"/>
   <path class="fil1" d="M15.72 6.31c-0.16,-0.04 -0.28,-0.1 -0.37,-0.18l0.14 -0.31c0.09,0.07 0.2,0.12 0.32,0.17 0.13,0.04 0.26,0.06 0.39,0.06 0.16,0 0.28,-0.02 0.35,-0.07 0.08,-0.05 0.12,-0.12 0.12,-0.2 0,-0.07 -0.02,-0.12 -0.06,-0.16 -0.05,-0.04 -0.1,-0.07 -0.17,-0.09 -0.07,-0.02 -0.16,-0.05 -0.28,-0.08 -0.16,-0.03 -0.29,-0.07 -0.39,-0.11 -0.1,-0.04 -0.19,-0.1 -0.26,-0.18 -0.08,-0.09 -0.11,-0.2 -0.11,-0.34 0,-0.12 0.03,-0.23 0.09,-0.32 0.07,-0.1 0.17,-0.18 0.3,-0.23 0.12,-0.06 0.28,-0.09 0.47,-0.09 0.13,0 0.26,0.02 0.39,0.05 0.12,0.03 0.23,0.08 0.32,0.14l-0.12 0.31c-0.09,-0.06 -0.19,-0.1 -0.29,-0.13 -0.11,-0.02 -0.21,-0.04 -0.3,-0.04 -0.16,0 -0.28,0.03 -0.35,0.08 -0.08,0.05 -0.12,0.12 -0.12,0.21 0,0.06 0.02,0.11 0.07,0.15 0.04,0.04 0.1,0.07 0.17,0.09 0.06,0.03 0.15,0.05 0.27,0.08 0.16,0.04 0.29,0.08 0.39,0.12 0.11,0.04 0.19,0.1 0.26,0.18 0.08,0.08 0.11,0.19 0.11,0.33 0,0.12 -0.03,0.22 -0.09,0.32 -0.07,0.1 -0.16,0.17 -0.3,0.23 -0.13,0.06 -0.29,0.09 -0.47,0.09 -0.17,0 -0.33,-0.03 -0.48,-0.08z"/>
   <path class="fil1" d="M18.4 6.27c-0.04,0.03 -0.09,0.06 -0.16,0.08 -0.06,0.02 -0.13,0.03 -0.2,0.03 -0.18,0 -0.32,-0.05 -0.42,-0.14 -0.1,-0.1 -0.15,-0.24 -0.15,-0.42l0 -0.78 -0.27 0 0 -0.31 0.27 0 0 -0.37 0.39 0 0 0.37 0.43 0 0 0.31 -0.43 0 0 0.78c0,0.08 0.02,0.14 0.05,0.18 0.04,0.04 0.1,0.06 0.17,0.06 0.09,0 0.16,-0.02 0.22,-0.07l0.1 0.28z"/>
   <path class="fil1" d="M19.75 5.91c0.09,-0.1 0.14,-0.22 0.14,-0.37 0,-0.16 -0.05,-0.28 -0.14,-0.37 -0.09,-0.1 -0.21,-0.14 -0.35,-0.14 -0.14,0 -0.26,0.04 -0.35,0.14 -0.09,0.09 -0.13,0.21 -0.13,0.37 0,0.15 0.04,0.27 0.13,0.37 0.09,0.09 0.21,0.14 0.35,0.14 0.14,0 0.26,-0.05 0.35,-0.14zm-0.8 0.36c-0.13,-0.07 -0.23,-0.17 -0.31,-0.3 -0.07,-0.13 -0.11,-0.27 -0.11,-0.43 0,-0.16 0.04,-0.31 0.11,-0.43 0.08,-0.13 0.18,-0.23 0.31,-0.3 0.14,-0.07 0.28,-0.11 0.45,-0.11 0.17,0 0.32,0.04 0.45,0.11 0.13,0.07 0.24,0.17 0.31,0.3 0.08,0.12 0.11,0.27 0.11,0.43 0,0.16 -0.03,0.3 -0.11,0.43 -0.07,0.13 -0.18,0.23 -0.31,0.3 -0.13,0.07 -0.28,0.11 -0.45,0.11 -0.17,0 -0.31,-0.04 -0.45,-0.11z"/>
   <path class="fil1" d="M21.59 4.7l0 0.37c-0.04,-0.01 -0.07,-0.01 -0.09,-0.01 -0.15,0 -0.27,0.04 -0.35,0.13 -0.09,0.08 -0.13,0.21 -0.13,0.37l0 0.79 -0.38 0 0 -1.63 0.36 0 0 0.24c0.11,-0.17 0.31,-0.26 0.59,-0.26z"/>
   <path class="fil1" d="M22.3 5.12c-0.09,0.07 -0.14,0.16 -0.16,0.29l0.93 0c-0.02,-0.12 -0.07,-0.22 -0.15,-0.29 -0.09,-0.08 -0.19,-0.11 -0.31,-0.11 -0.13,0 -0.23,0.03 -0.31,0.11zm1.13 0.54l-1.29 0c0.03,0.12 0.08,0.22 0.18,0.29 0.09,0.07 0.21,0.1 0.35,0.1 0.18,0 0.33,-0.06 0.45,-0.18l0.2 0.24c-0.07,0.09 -0.16,0.15 -0.28,0.2 -0.11,0.04 -0.23,0.07 -0.38,0.07 -0.18,0 -0.33,-0.04 -0.47,-0.11 -0.14,-0.07 -0.24,-0.17 -0.32,-0.3 -0.07,-0.13 -0.11,-0.27 -0.11,-0.43 0,-0.16 0.04,-0.31 0.11,-0.43 0.07,-0.13 0.17,-0.23 0.3,-0.3 0.13,-0.07 0.28,-0.11 0.44,-0.11 0.16,0 0.3,0.04 0.42,0.11 0.13,0.07 0.23,0.17 0.3,0.29 0.07,0.13 0.1,0.28 0.1,0.45 0,0.02 0,0.06 0,0.11z"/>
  </g>
 </g>
</svg>
