<?xml version="1.0" encoding="UTF-8"?>
<!DOCTYPE svg PUBLIC "-//W3C//DTD SVG 1.1//EN" "http://www.w3.org/Graphics/SVG/1.1/DTD/svg11.dtd">
<svg xmlns="http://www.w3.org/2000/svg" xml:space="preserve" width="158px" height="48px" version="1.1" style="shape-rendering:geometricPrecision; text-rendering:geometricPrecision; image-rendering:optimizeQuality; fill-rule:evenodd; clip-rule:evenodd"
viewBox="0 0 36.87 11.21"
 xmlns:xlink="http://www.w3.org/1999/xlink">
 <defs>
  <style type="text/css">
   <![CDATA[
    .fil0 {fill:black;fill-rule:nonzero}
    .fil5 {fill:#05D5FB;fill-rule:nonzero}
    .fil3 {fill:#06EF79;fill-rule:nonzero}
    .fil4 {fill:#F93646;fill-rule:nonzero}
    .fil2 {fill:#FFD109;fill-rule:nonzero}
    .fil1 {fill:white;fill-rule:nonzero}
   ]]>
  </style>
 </defs>
 <g id="Layer_x0020_1">
  <metadata id="CorelCorpID_0Corel-Layer"/>
  <g id="_2498496868768">
   <path class="fil0" d="M35.45 11.21l-34.02 0c-0.79,0 -1.43,-0.63 -1.43,-1.42l0 -8.36c0,-0.79 0.64,-1.43 1.43,-1.43l34.02 0c0.78,0 1.42,0.64 1.42,1.43l0 8.36c0,0.79 -0.64,1.42 -1.42,1.42z"/>
   <path class="fil1" d="M12.08 6.77l0.52 0 0 1.17c-0.15,0.12 -0.33,0.21 -0.53,0.28 -0.2,0.06 -0.41,0.09 -0.62,0.09 -0.3,0 -0.56,-0.06 -0.8,-0.19 -0.24,-0.13 -0.43,-0.31 -0.57,-0.54 -0.14,-0.23 -0.2,-0.49 -0.2,-0.77 0,-0.29 0.06,-0.55 0.2,-0.78 0.14,-0.22 0.33,-0.4 0.57,-0.53 0.24,-0.13 0.51,-0.2 0.81,-0.2 0.25,0 0.47,0.04 0.67,0.12 0.2,0.08 0.37,0.2 0.51,0.36l-0.35 0.33c-0.22,-0.22 -0.49,-0.33 -0.8,-0.33 -0.21,0 -0.39,0.04 -0.55,0.13 -0.16,0.08 -0.29,0.21 -0.38,0.36 -0.09,0.16 -0.14,0.34 -0.14,0.54 0,0.19 0.05,0.37 0.14,0.52 0.09,0.16 0.22,0.28 0.38,0.37 0.16,0.09 0.34,0.14 0.54,0.14 0.23,0 0.43,-0.05 0.6,-0.16l0 -0.91z"/>
   <path class="fil1" d="M14.74 7.66c0.13,-0.13 0.19,-0.3 0.19,-0.51 0,-0.21 -0.06,-0.37 -0.19,-0.5 -0.12,-0.13 -0.28,-0.19 -0.47,-0.19 -0.2,0 -0.35,0.06 -0.48,0.19 -0.12,0.13 -0.18,0.29 -0.18,0.5 0,0.21 0.06,0.38 0.18,0.51 0.13,0.13 0.28,0.19 0.48,0.19 0.19,0 0.35,-0.06 0.47,-0.19zm-1.08 0.49c-0.19,-0.09 -0.33,-0.23 -0.43,-0.4 -0.1,-0.18 -0.15,-0.38 -0.15,-0.6 0,-0.22 0.05,-0.41 0.15,-0.59 0.1,-0.17 0.24,-0.3 0.43,-0.4 0.18,-0.1 0.38,-0.15 0.61,-0.15 0.22,0 0.43,0.05 0.61,0.15 0.18,0.1 0.32,0.23 0.43,0.4 0.1,0.18 0.15,0.37 0.15,0.59 0,0.22 -0.05,0.42 -0.15,0.6 -0.11,0.17 -0.25,0.31 -0.43,0.4 -0.18,0.1 -0.39,0.15 -0.61,0.15 -0.23,0 -0.43,-0.05 -0.61,-0.15z"/>
   <path class="fil1" d="M17.44 7.66c0.12,-0.13 0.19,-0.3 0.19,-0.51 0,-0.21 -0.07,-0.37 -0.19,-0.5 -0.13,-0.13 -0.29,-0.19 -0.48,-0.19 -0.19,0 -0.35,0.06 -0.47,0.19 -0.13,0.13 -0.19,0.29 -0.19,0.5 0,0.21 0.06,0.38 0.19,0.51 0.12,0.13 0.28,0.19 0.47,0.19 0.19,0 0.35,-0.06 0.48,-0.19zm-1.09 0.49c-0.18,-0.09 -0.32,-0.23 -0.42,-0.4 -0.1,-0.18 -0.15,-0.38 -0.15,-0.6 0,-0.22 0.05,-0.41 0.15,-0.59 0.1,-0.17 0.24,-0.3 0.42,-0.4 0.18,-0.1 0.39,-0.15 0.61,-0.15 0.23,0 0.44,0.05 0.62,0.15 0.18,0.1 0.32,0.23 0.42,0.4 0.1,0.18 0.15,0.37 0.15,0.59 0,0.22 -0.05,0.42 -0.15,0.6 -0.1,0.17 -0.24,0.31 -0.42,0.4 -0.18,0.1 -0.39,0.15 -0.62,0.15 -0.22,0 -0.43,-0.05 -0.61,-0.15z"/>
   <path class="fil1" d="M20.17 7.55c0.12,-0.12 0.19,-0.27 0.19,-0.46 0,-0.19 -0.07,-0.34 -0.19,-0.46 -0.13,-0.12 -0.29,-0.17 -0.49,-0.17 -0.2,0 -0.36,0.05 -0.49,0.17 -0.13,0.12 -0.19,0.27 -0.19,0.46 0,0.19 0.06,0.34 0.19,0.46 0.13,0.12 0.29,0.18 0.49,0.18 0.2,0 0.36,-0.06 0.49,-0.18zm0.7 -1.51l0 1.89c0,0.79 -0.4,1.18 -1.2,1.18 -0.22,0 -0.42,-0.03 -0.61,-0.08 -0.2,-0.06 -0.35,-0.13 -0.48,-0.24l0.23 -0.39c0.1,0.08 0.23,0.15 0.37,0.19 0.15,0.05 0.31,0.08 0.46,0.08 0.24,0 0.42,-0.06 0.54,-0.17 0.11,-0.11 0.17,-0.28 0.17,-0.51l0 -0.12c-0.09,0.1 -0.2,0.17 -0.33,0.22 -0.13,0.05 -0.27,0.08 -0.42,0.08 -0.21,0 -0.4,-0.05 -0.57,-0.14 -0.18,-0.09 -0.31,-0.21 -0.41,-0.38 -0.1,-0.16 -0.15,-0.35 -0.15,-0.56 0,-0.21 0.05,-0.4 0.15,-0.57 0.1,-0.16 0.23,-0.28 0.41,-0.37 0.17,-0.09 0.36,-0.14 0.57,-0.14 0.16,0 0.31,0.03 0.44,0.08 0.13,0.05 0.24,0.14 0.33,0.24l0 -0.29 0.5 0z"/>
   <polygon class="fil1" points="21.56,8.27 22.08,8.27 22.08,5.17 21.56,5.17 "/>
   <path class="fil1" d="M23.31 6.58c-0.11,0.1 -0.19,0.23 -0.21,0.39l1.27 0c-0.03,-0.16 -0.09,-0.29 -0.21,-0.39 -0.11,-0.1 -0.25,-0.15 -0.42,-0.15 -0.17,0 -0.31,0.05 -0.43,0.15zm1.55 0.74l-1.76 0c0.03,0.17 0.11,0.3 0.24,0.39 0.13,0.1 0.3,0.15 0.49,0.15 0.24,0 0.44,-0.08 0.6,-0.25l0.28 0.33c-0.1,0.12 -0.22,0.21 -0.38,0.27 -0.15,0.06 -0.32,0.09 -0.52,0.09 -0.24,0 -0.46,-0.05 -0.64,-0.15 -0.19,-0.09 -0.33,-0.23 -0.44,-0.4 -0.1,-0.18 -0.15,-0.38 -0.15,-0.6 0,-0.21 0.05,-0.41 0.15,-0.58 0.1,-0.18 0.24,-0.31 0.41,-0.41 0.18,-0.1 0.38,-0.15 0.6,-0.15 0.21,0 0.41,0.05 0.58,0.15 0.17,0.09 0.3,0.23 0.4,0.4 0.1,0.18 0.14,0.38 0.14,0.61 0,0.03 0,0.08 0,0.15z"/>
   <path class="fil1" d="M28.29 6.82c0.12,-0.11 0.18,-0.25 0.18,-0.44 0,-0.18 -0.06,-0.33 -0.18,-0.43 -0.12,-0.1 -0.3,-0.15 -0.54,-0.15l-0.64 0 0 1.17 0.64 0c0.24,0 0.42,-0.05 0.54,-0.15zm0.15 -1.35c0.18,0.08 0.33,0.2 0.43,0.36 0.1,0.15 0.15,0.34 0.15,0.55 0,0.22 -0.05,0.4 -0.15,0.56 -0.1,0.16 -0.25,0.28 -0.43,0.36 -0.19,0.08 -0.41,0.13 -0.67,0.13l-0.66 0 0 0.84 -0.54 0 0 -2.93 1.2 0c0.26,0 0.48,0.05 0.67,0.13z"/>
   <polygon class="fil1" points="29.55,8.27 30.08,8.27 30.08,5.17 29.55,5.17 "/>
   <path class="fil1" d="M31.89 7.83c0.11,-0.06 0.18,-0.15 0.22,-0.26l0 -0.26 -0.54 0c-0.3,0 -0.45,0.1 -0.45,0.3 0,0.09 0.04,0.17 0.11,0.23 0.08,0.05 0.18,0.08 0.31,0.08 0.14,0 0.25,-0.03 0.35,-0.09zm0.48 -1.58c0.17,0.16 0.26,0.39 0.26,0.71l0 1.31 -0.49 0 0 -0.27c-0.07,0.1 -0.16,0.17 -0.28,0.22 -0.11,0.05 -0.26,0.08 -0.42,0.08 -0.17,0 -0.32,-0.03 -0.44,-0.09 -0.13,-0.05 -0.23,-0.13 -0.29,-0.23 -0.07,-0.11 -0.11,-0.22 -0.11,-0.35 0,-0.2 0.08,-0.36 0.23,-0.48 0.15,-0.12 0.38,-0.18 0.7,-0.18l0.58 0 0 -0.04c0,-0.15 -0.05,-0.27 -0.14,-0.36 -0.09,-0.08 -0.23,-0.12 -0.42,-0.12 -0.12,0 -0.25,0.02 -0.37,0.06 -0.12,0.03 -0.22,0.09 -0.3,0.16l-0.21 -0.38c0.12,-0.09 0.26,-0.16 0.42,-0.21 0.17,-0.04 0.34,-0.07 0.53,-0.07 0.32,0 0.58,0.08 0.75,0.24z"/>
   <path class="fil1" d="M35.35 6.04l-1.05 2.41c-0.09,0.24 -0.21,0.41 -0.35,0.51 -0.14,0.1 -0.31,0.15 -0.51,0.15 -0.11,0 -0.22,-0.02 -0.33,-0.05 -0.11,-0.04 -0.2,-0.09 -0.27,-0.15l0.21 -0.39c0.05,0.05 0.11,0.09 0.18,0.11 0.07,0.03 0.14,0.05 0.21,0.05 0.09,0 0.17,-0.03 0.23,-0.08 0.06,-0.04 0.11,-0.12 0.16,-0.23l0.04 -0.09 -0.97 -2.24 0.54 0 0.7 1.65 0.71 -1.65 0.5 0z"/>
   <path class="fil2" d="M8.87 5.46l-1.4 -0.81 -1.16 1.12 1.06 1.02 1.5 -0.87c0.08,-0.05 0.13,-0.13 0.13,-0.23 0,-0.09 -0.05,-0.18 -0.13,-0.23z"/>
   <polygon class="fil3" points="7.23,4.52 5.68,3.62 2.29,1.89 6.12,5.59 "/>
   <polygon class="fil4" points="2.35,9.6 5.69,7.76 7.13,6.93 6.12,5.95 "/>
   <polygon class="fil5" points="2.07,2.04 2.07,9.51 5.93,5.77 "/>
   <path class="fil1" d="M11.36 2.98l-0.39 0 0 -0.17 0.58 0 0 0.9 -0.19 0 0 -0.73zm-0.55 0.74c-0.12,0 -0.23,-0.03 -0.33,-0.08 -0.1,-0.05 -0.19,-0.12 -0.26,-0.21 -0.08,-0.08 -0.14,-0.18 -0.18,-0.29 -0.04,-0.11 -0.07,-0.22 -0.07,-0.34 0,-0.12 0.03,-0.23 0.07,-0.34 0.04,-0.11 0.1,-0.21 0.17,-0.29 0.08,-0.09 0.17,-0.15 0.27,-0.2 0.1,-0.05 0.21,-0.07 0.33,-0.07 0.18,0 0.32,0.03 0.43,0.11 0.11,0.07 0.2,0.16 0.26,0.28l-0.18 0.12c-0.05,-0.1 -0.12,-0.18 -0.21,-0.23 -0.09,-0.05 -0.19,-0.08 -0.3,-0.08 -0.09,0 -0.18,0.02 -0.25,0.06 -0.08,0.04 -0.14,0.09 -0.19,0.16 -0.06,0.07 -0.1,0.14 -0.12,0.23 -0.03,0.08 -0.05,0.17 -0.05,0.26 0,0.09 0.02,0.19 0.05,0.27 0.03,0.09 0.08,0.16 0.13,0.23 0.06,0.06 0.13,0.11 0.2,0.15 0.08,0.04 0.16,0.05 0.25,0.05 0.1,0 0.2,-0.02 0.29,-0.07 0.1,-0.06 0.18,-0.14 0.27,-0.24l0 0.23c-0.17,0.19 -0.36,0.29 -0.58,0.29z"/>
   <polygon class="fil1" points="13.12,3.5 13.12,3.71 11.9,3.71 11.9,1.91 13.09,1.91 13.09,2.11 12.12,2.11 12.12,2.69 12.97,2.69 12.97,2.88 12.12,2.88 12.12,3.5 "/>
   <polygon class="fil1" points="14.72,2.11 14.1,2.11 14.1,3.71 13.87,3.71 13.87,2.11 13.25,2.11 13.25,1.91 14.72,1.91 "/>
   <polygon class="fil1" points="15.54,3.71 15.77,3.71 15.77,1.91 15.54,1.91 "/>
   <polygon class="fil1" points="16.43,2.33 16.43,3.71 16.2,3.71 16.2,1.91 16.39,1.91 17.49,3.31 17.49,1.91 17.72,1.91 17.72,3.71 17.51,3.71 "/>
   <path class="fil1" d="M18.9 2.81c0,0.09 0.02,0.18 0.05,0.26 0.03,0.09 0.07,0.16 0.12,0.23 0.06,0.07 0.12,0.12 0.2,0.16 0.07,0.03 0.16,0.05 0.25,0.05 0.1,0 0.18,-0.02 0.26,-0.06 0.07,-0.04 0.14,-0.09 0.19,-0.16 0.05,-0.07 0.09,-0.14 0.12,-0.23 0.03,-0.08 0.04,-0.17 0.04,-0.25 0,-0.09 -0.01,-0.18 -0.04,-0.26 -0.03,-0.09 -0.07,-0.16 -0.13,-0.23 -0.05,-0.07 -0.12,-0.12 -0.19,-0.16 -0.08,-0.04 -0.16,-0.05 -0.25,-0.05 -0.1,0 -0.18,0.02 -0.26,0.05 -0.07,0.04 -0.14,0.1 -0.19,0.17 -0.06,0.06 -0.1,0.14 -0.13,0.22 -0.02,0.09 -0.04,0.17 -0.04,0.26zm0.62 0.91c-0.13,0 -0.24,-0.03 -0.35,-0.08 -0.1,-0.05 -0.19,-0.12 -0.26,-0.2 -0.08,-0.09 -0.14,-0.19 -0.18,-0.3 -0.04,-0.11 -0.06,-0.22 -0.06,-0.33 0,-0.12 0.02,-0.24 0.07,-0.34 0.04,-0.11 0.1,-0.21 0.18,-0.29 0.07,-0.09 0.16,-0.16 0.27,-0.21 0.1,-0.05 0.21,-0.07 0.33,-0.07 0.13,0 0.24,0.02 0.35,0.08 0.1,0.05 0.19,0.12 0.26,0.21 0.08,0.08 0.13,0.18 0.17,0.29 0.04,0.11 0.06,0.22 0.06,0.33 0,0.12 -0.02,0.24 -0.06,0.34 -0.04,0.11 -0.1,0.21 -0.18,0.29 -0.07,0.09 -0.16,0.16 -0.27,0.21 -0.1,0.04 -0.21,0.07 -0.33,0.07z"/>
   <polygon class="fil1" points="20.91,2.33 20.91,3.71 20.68,3.71 20.68,1.91 20.87,1.91 21.97,3.31 21.97,1.91 22.2,1.91 22.2,3.71 21.99,3.71 "/>
  </g>
 </g>
</svg>
