<?xml version="1.0" encoding="UTF-8"?>
<!DOCTYPE svg PUBLIC "-//W3C//DTD SVG 1.1//EN" "http://www.w3.org/Graphics/SVG/1.1/DTD/svg11.dtd">
<svg xmlns="http://www.w3.org/2000/svg" xml:space="preserve" width="218px" height="48px" version="1.1" style="shape-rendering:geometricPrecision; text-rendering:geometricPrecision; image-rendering:optimizeQuality; fill-rule:evenodd; clip-rule:evenodd"
viewBox="0 0 130.96 28.67"
 xmlns:xlink="http://www.w3.org/1999/xlink">
 <defs>
  <style type="text/css">
   <![CDATA[
    .fil0 {fill:#FF6600;fill-rule:nonzero}
   ]]>
  </style>
 </defs>
 <g id="Layer_x0020_1">
  <metadata id="CorelCorpID_0Corel-Layer"/>
  <g id="_1660084164352">
   <path class="fil0" d="M37.36 26.37l0 -14.75 3.21 0 5.37 8.75 -2.3 -0.02 5.44 -8.73 3.08 0 0 14.75 -3.48 0 0 -4.59c0,-1.27 0.03,-2.4 0.1,-3.42 0.06,-1.01 0.17,-2.01 0.32,-3.01l0.4 1.1 -4.09 6.34 -1.39 0 -4 -6.3 0.4 -1.14c0.15,0.94 0.26,1.91 0.33,2.9 0.06,0.99 0.09,2.17 0.09,3.53l0 4.59 -3.48 0z"/>
   <path id="1" class="fil0" d="M59.34 26.59c-1.16,0 -2.2,-0.26 -3.11,-0.76 -0.9,-0.51 -1.62,-1.2 -2.15,-2.07 -0.52,-0.87 -0.79,-1.87 -0.79,-2.99 0,-1.13 0.27,-2.13 0.79,-3 0.53,-0.87 1.25,-1.56 2.15,-2.06 0.91,-0.51 1.95,-0.76 3.11,-0.76 1.17,0 2.21,0.25 3.11,0.76 0.91,0.5 1.62,1.19 2.14,2.06 0.52,0.87 0.78,1.87 0.78,3 0,1.12 -0.26,2.12 -0.78,2.99 -0.52,0.87 -1.23,1.56 -2.14,2.07 -0.9,0.5 -1.94,0.76 -3.11,0.76zm0 -2.91c0.51,0 0.96,-0.13 1.35,-0.38 0.4,-0.26 0.7,-0.6 0.93,-1.04 0.22,-0.43 0.33,-0.93 0.32,-1.49 0.01,-0.56 -0.1,-1.07 -0.32,-1.51 -0.23,-0.44 -0.53,-0.79 -0.93,-1.04 -0.39,-0.26 -0.84,-0.38 -1.35,-0.38 -0.5,0 -0.96,0.12 -1.36,0.38 -0.4,0.25 -0.71,0.6 -0.94,1.04 -0.22,0.44 -0.33,0.95 -0.31,1.51 -0.02,0.56 0.09,1.06 0.31,1.49 0.23,0.44 0.54,0.78 0.94,1.04 0.4,0.25 0.86,0.38 1.36,0.38z"/>
   <path id="2" class="fil0" d="M73.08 26.61c-0.5,0 -0.99,-0.07 -1.45,-0.21 -0.47,-0.15 -0.89,-0.34 -1.26,-0.57 -0.37,-0.24 -0.68,-0.52 -0.93,-0.84 -0.24,-0.31 -0.41,-0.64 -0.49,-0.98l0.74 -0.25 -0.19 2.59 -3.14 0 0 -15.57 3.39 0 0 7.08 -0.7 -0.26c0.09,-0.36 0.25,-0.7 0.49,-1.02 0.24,-0.31 0.54,-0.59 0.91,-0.84 0.36,-0.25 0.76,-0.44 1.2,-0.58 0.43,-0.14 0.88,-0.21 1.35,-0.21 0.97,0 1.83,0.25 2.58,0.75 0.75,0.5 1.34,1.18 1.78,2.06 0.44,0.88 0.65,1.88 0.65,3.01 0,1.14 -0.21,2.14 -0.64,3.02 -0.43,0.88 -1.01,1.57 -1.76,2.07 -0.74,0.5 -1.59,0.75 -2.53,0.75zm-0.88 -2.85c0.5,0 0.94,-0.13 1.32,-0.38 0.38,-0.25 0.67,-0.6 0.88,-1.04 0.2,-0.45 0.3,-0.97 0.3,-1.57 0,-0.59 -0.1,-1.11 -0.3,-1.56 -0.21,-0.45 -0.5,-0.8 -0.88,-1.04 -0.38,-0.23 -0.82,-0.35 -1.32,-0.35 -0.52,0 -0.97,0.12 -1.35,0.35 -0.38,0.24 -0.68,0.59 -0.89,1.04 -0.21,0.45 -0.31,0.97 -0.31,1.56 0,0.6 0.1,1.12 0.31,1.57 0.21,0.44 0.51,0.79 0.89,1.04 0.38,0.25 0.83,0.38 1.35,0.38z"/>
   <path id="3" class="fil0" d="M78.98 26.37l0 -11.19 3.37 0 0 11.19 -3.37 0zm1.68 -13.4c-0.63,0 -1.12,-0.15 -1.48,-0.46 -0.36,-0.3 -0.54,-0.73 -0.54,-1.29 0,-0.51 0.18,-0.92 0.55,-1.25 0.36,-0.32 0.86,-0.48 1.47,-0.48 0.64,0 1.13,0.15 1.48,0.45 0.35,0.3 0.53,0.73 0.53,1.28 0,0.52 -0.18,0.94 -0.54,1.26 -0.36,0.33 -0.85,0.49 -1.47,0.49z"/>
   <path id="4" class="fil0" d="M88.98 26.59c-1.08,0 -2.05,-0.26 -2.9,-0.76 -0.86,-0.51 -1.54,-1.2 -2.04,-2.08 -0.5,-0.88 -0.75,-1.87 -0.75,-2.98 0,-1.11 0.25,-2.11 0.75,-2.99 0.5,-0.87 1.18,-1.57 2.04,-2.07 0.85,-0.51 1.82,-0.76 2.9,-0.76 1,0 1.92,0.17 2.76,0.53 0.83,0.35 1.5,0.84 1.99,1.47l-1.84 2.19c-0.19,-0.22 -0.43,-0.43 -0.69,-0.63 -0.27,-0.2 -0.56,-0.35 -0.89,-0.46 -0.32,-0.11 -0.66,-0.17 -1.01,-0.17 -0.53,0 -1,0.12 -1.41,0.37 -0.41,0.24 -0.73,0.58 -0.95,1.02 -0.22,0.44 -0.34,0.94 -0.34,1.5 0,0.53 0.12,1.02 0.35,1.45 0.23,0.44 0.55,0.78 0.96,1.03 0.41,0.26 0.87,0.38 1.39,0.38 0.37,0 0.7,-0.04 1.01,-0.13 0.31,-0.09 0.6,-0.23 0.86,-0.41 0.26,-0.19 0.5,-0.41 0.72,-0.68l1.82 2.21c-0.48,0.61 -1.15,1.09 -2,1.44 -0.85,0.35 -1.76,0.53 -2.73,0.53z"/>
   <path id="5" class="fil0" d="M96.53 26.37l0 -14.01 3.37 0 0 14.01 -3.37 0zm-1.99 -8.24l0 -2.95 7.53 0 0 2.95 -7.53 0z"/>
   <path id="6" class="fil0" d="M103.37 26.37l0 -11.19 3.37 0 0 11.19 -3.37 0zm1.69 -13.4c-0.64,0 -1.13,-0.15 -1.49,-0.46 -0.36,-0.3 -0.54,-0.73 -0.54,-1.29 0,-0.51 0.19,-0.92 0.55,-1.25 0.37,-0.32 0.86,-0.48 1.48,-0.48 0.63,0 1.12,0.15 1.47,0.45 0.35,0.3 0.53,0.73 0.53,1.28 0,0.52 -0.18,0.94 -0.54,1.26 -0.36,0.33 -0.85,0.49 -1.46,0.49z"/>
   <polygon id="7" class="fil0" points="112.53,26.37 107.85,15.18 111.59,15.18 114.37,23.55 113.55,23.63 116.41,15.18 120.1,15.18 115.19,26.37 "/>
   <path id="8" class="fil0" d="M126.06 26.59c-1.24,0 -2.31,-0.25 -3.22,-0.75 -0.92,-0.5 -1.63,-1.18 -2.13,-2.05 -0.51,-0.86 -0.76,-1.85 -0.76,-2.96 0,-0.86 0.14,-1.64 0.42,-2.36 0.28,-0.72 0.67,-1.34 1.18,-1.87 0.51,-0.52 1.11,-0.93 1.8,-1.22 0.7,-0.29 1.46,-0.43 2.29,-0.43 0.79,0 1.51,0.14 2.16,0.42 0.65,0.28 1.22,0.68 1.7,1.18 0.47,0.51 0.84,1.1 1.09,1.79 0.26,0.69 0.37,1.44 0.34,2.26l-0.02 0.9 -8.92 0 -0.48 -1.89 6.66 0 -0.36 0.4 0 -0.42c-0.03,-0.35 -0.14,-0.67 -0.33,-0.94 -0.19,-0.28 -0.44,-0.49 -0.74,-0.64 -0.31,-0.16 -0.66,-0.24 -1.06,-0.24 -0.55,0 -1.01,0.11 -1.4,0.33 -0.39,0.22 -0.68,0.53 -0.87,0.95 -0.2,0.41 -0.3,0.92 -0.3,1.53 0,0.62 0.13,1.15 0.39,1.61 0.26,0.46 0.64,0.81 1.14,1.06 0.5,0.26 1.09,0.38 1.78,0.38 0.48,0 0.9,-0.07 1.27,-0.21 0.38,-0.14 0.78,-0.38 1.22,-0.71l1.58 2.23c-0.44,0.38 -0.9,0.69 -1.39,0.93 -0.5,0.24 -1,0.42 -1.51,0.54 -0.51,0.12 -1.02,0.18 -1.53,0.18z"/>
   <path class="fil0" d="M1.44 22.27c-0.51,-1.18 -0.88,-2.38 -1.12,-3.59 -0.23,-1.21 -0.34,-2.42 -0.32,-3.61 0.02,-1.2 0.17,-2.38 0.44,-3.52 0.27,-1.14 0.65,-2.24 1.16,-3.28 0.5,-1.03 1.12,-2.01 1.84,-2.91 0.72,-0.89 1.56,-1.7 2.49,-2.4 0.94,-0.71 1.98,-1.31 3.12,-1.78 1.13,-0.47 2.36,-0.82 3.69,-1.01 1.72,-0.25 3.35,-0.21 4.85,0.06 1.51,0.27 2.9,0.78 4.15,1.46 1.25,0.68 2.37,1.52 3.34,2.48 0.96,0.96 1.78,2.02 2.43,3.13 0.65,1.11 1.13,2.27 1.43,3.41 0.3,1.14 0.41,2.26 0.32,3.31 -0.08,1.05 -0.37,2.01 -0.87,2.84 -0.5,0.83 -1.22,1.52 -2.18,2 -0.47,0.19 -0.93,0.32 -1.37,0.41 -0.45,0.09 -0.87,0.13 -1.28,0.12 -0.41,-0.01 -0.8,-0.07 -1.16,-0.17 -0.37,-0.1 -0.72,-0.24 -1.05,-0.42 -0.33,-0.19 -0.63,-0.41 -0.91,-0.68 -0.29,-0.26 -0.55,-0.57 -0.78,-0.91 -0.24,-0.34 -0.45,-0.72 -0.63,-1.13 -0.19,-0.41 -0.35,-0.86 -0.48,-1.33 -0.13,-0.49 -0.31,-0.93 -0.54,-1.32 -0.22,-0.4 -0.47,-0.74 -0.76,-1.04 -0.28,-0.29 -0.6,-0.54 -0.92,-0.73 -0.33,-0.2 -0.67,-0.34 -1.01,-0.43 -0.34,-0.09 -0.69,-0.12 -1.02,-0.1 -0.34,0.02 -0.66,0.1 -0.97,0.24 -0.31,0.14 -0.59,0.34 -0.85,0.6 -0.25,0.26 -0.47,0.58 -0.65,0.96 -0.1,0.23 -0.19,0.47 -0.25,0.71 -0.07,0.24 -0.12,0.49 -0.15,0.74 -0.03,0.25 -0.04,0.51 -0.04,0.77 0,0.26 0.01,0.52 0.04,0.78 0.03,0.26 0.07,0.52 0.12,0.77 0.05,0.26 0.11,0.51 0.19,0.76 0.07,0.25 0.15,0.49 0.24,0.72 0.09,0.24 0.18,0.46 0.29,0.68 0.17,0.36 0.36,0.72 0.58,1.07 0.22,0.35 0.47,0.7 0.74,1.03 0.28,0.34 0.57,0.67 0.9,0.98 0.33,0.32 0.68,0.62 1.06,0.9 0.38,0.29 0.78,0.56 1.22,0.81 0.43,0.25 0.89,0.48 1.38,0.69 0.49,0.21 1.01,0.4 1.56,0.56 0.55,0.16 1.12,0.3 1.73,0.4 0.17,0.03 0.33,0.09 0.46,0.18 0.14,0.08 0.25,0.19 0.34,0.3 0.09,0.12 0.16,0.25 0.19,0.39 0.04,0.13 0.06,0.27 0.04,0.4 -0.02,0.13 -0.07,0.26 -0.15,0.37 -0.08,0.11 -0.19,0.21 -0.34,0.28 -0.15,0.07 -0.34,0.12 -0.56,0.14 -0.23,0.01 -0.49,-0.01 -0.79,-0.07 -0.67,-0.13 -1.31,-0.3 -1.92,-0.49 -0.6,-0.19 -1.18,-0.42 -1.73,-0.67 -0.54,-0.24 -1.06,-0.52 -1.54,-0.81 -0.49,-0.3 -0.94,-0.61 -1.36,-0.95 -0.43,-0.33 -0.83,-0.68 -1.19,-1.05 -0.37,-0.36 -0.71,-0.74 -1.01,-1.13 -0.31,-0.39 -0.59,-0.79 -0.85,-1.2 -0.25,-0.4 -0.47,-0.82 -0.67,-1.23 -0.13,-0.29 -0.26,-0.59 -0.38,-0.9 -0.11,-0.31 -0.22,-0.63 -0.3,-0.95 -0.09,-0.32 -0.17,-0.64 -0.23,-0.97 -0.06,-0.33 -0.11,-0.67 -0.14,-1 -0.02,-0.34 -0.04,-0.67 -0.03,-1 0.01,-0.33 0.04,-0.67 0.08,-0.99 0.05,-0.33 0.12,-0.65 0.21,-0.97 0.09,-0.31 0.21,-0.62 0.34,-0.92 0.27,-0.59 0.62,-1.1 1.02,-1.52 0.39,-0.42 0.84,-0.75 1.33,-1 0.48,-0.25 1.01,-0.42 1.54,-0.5 0.54,-0.08 1.09,-0.08 1.63,0.01 0.55,0.09 1.09,0.26 1.61,0.52 0.52,0.26 1.02,0.6 1.47,1.03 0.46,0.43 0.87,0.94 1.22,1.54 0.36,0.6 0.65,1.28 0.86,2.05 0.09,0.31 0.18,0.6 0.3,0.88 0.11,0.26 0.24,0.51 0.38,0.74 0.14,0.22 0.3,0.43 0.47,0.6 0.17,0.18 0.35,0.33 0.55,0.45 0.2,0.13 0.42,0.22 0.65,0.29 0.23,0.07 0.48,0.1 0.74,0.11 0.26,0.01 0.54,-0.02 0.83,-0.08 0.3,-0.06 0.61,-0.15 0.94,-0.28 0.61,-0.29 1.06,-0.77 1.35,-1.37 0.29,-0.61 0.42,-1.34 0.4,-2.15 -0.01,-0.81 -0.18,-1.69 -0.48,-2.59 -0.3,-0.91 -0.74,-1.84 -1.31,-2.73 -0.57,-0.89 -1.27,-1.76 -2.09,-2.54 -0.82,-0.77 -1.75,-1.47 -2.8,-2.02 -1.04,-0.56 -2.19,-0.97 -3.44,-1.2 -1.25,-0.22 -2.6,-0.26 -4.04,-0.05 -1.16,0.17 -2.23,0.47 -3.21,0.87 -0.99,0.4 -1.89,0.91 -2.7,1.51 -0.81,0.6 -1.52,1.3 -2.15,2.06 -0.62,0.77 -1.15,1.6 -1.57,2.5 -0.43,0.89 -0.76,1.84 -0.98,2.83 -0.22,0.98 -0.34,2.01 -0.35,3.05 -0.01,1.05 0.09,2.11 0.31,3.18 0.21,1.06 0.54,2.13 0.99,3.19 0.08,0.19 0.13,0.38 0.14,0.55 0.01,0.17 -0.02,0.33 -0.06,0.47 -0.05,0.14 -0.12,0.27 -0.21,0.37 -0.09,0.1 -0.2,0.18 -0.32,0.24 -0.12,0.05 -0.25,0.08 -0.39,0.08 -0.13,0 -0.27,-0.03 -0.4,-0.09 -0.14,-0.06 -0.27,-0.15 -0.39,-0.29 -0.12,-0.13 -0.22,-0.29 -0.31,-0.5zm21.43 -8.19c-0.11,-0.56 -0.27,-1.1 -0.46,-1.62 -0.2,-0.52 -0.43,-1.02 -0.7,-1.49 -0.27,-0.47 -0.58,-0.91 -0.92,-1.32 -0.35,-0.41 -0.72,-0.79 -1.13,-1.13 -0.4,-0.34 -0.84,-0.64 -1.3,-0.89 -0.46,-0.26 -0.95,-0.47 -1.47,-0.63 -0.51,-0.15 -1.05,-0.26 -1.61,-0.31 -0.56,-0.05 -1.14,-0.05 -1.73,0.02 -0.28,0.04 -0.55,0.08 -0.82,0.13 -0.26,0.05 -0.51,0.12 -0.75,0.19 -0.24,0.07 -0.48,0.15 -0.7,0.24 -0.22,0.09 -0.44,0.18 -0.64,0.29 -0.2,0.11 -0.4,0.22 -0.59,0.34 -0.18,0.12 -0.36,0.25 -0.53,0.39 -0.17,0.13 -0.33,0.27 -0.48,0.42 -0.15,0.15 -0.29,0.31 -0.42,0.47 -0.31,0.37 -0.57,0.77 -0.8,1.19 -0.22,0.42 -0.4,0.86 -0.54,1.32 -0.15,0.45 -0.26,0.93 -0.33,1.41 -0.08,0.48 -0.12,0.97 -0.13,1.46 -0.01,0.5 0,1 0.04,1.49 0.04,0.49 0.11,0.99 0.2,1.47 0.09,0.48 0.2,0.96 0.32,1.42 0.13,0.46 0.28,0.9 0.44,1.33 0.12,0.34 0.26,0.68 0.41,1.01 0.15,0.33 0.31,0.65 0.49,0.96 0.17,0.32 0.35,0.63 0.54,0.92 0.19,0.3 0.39,0.59 0.6,0.86 0.2,0.28 0.42,0.54 0.65,0.79 0.22,0.25 0.46,0.49 0.7,0.71 0.24,0.23 0.49,0.44 0.75,0.63 0.26,0.19 0.52,0.36 0.79,0.52 0.14,0.08 0.25,0.19 0.34,0.31 0.09,0.12 0.15,0.25 0.19,0.39 0.04,0.14 0.05,0.29 0.04,0.43 -0.01,0.14 -0.04,0.28 -0.1,0.4 -0.06,0.12 -0.14,0.23 -0.25,0.31 -0.11,0.08 -0.24,0.13 -0.4,0.15 -0.16,0.02 -0.34,0 -0.54,-0.06 -0.21,-0.06 -0.44,-0.17 -0.69,-0.33 -0.31,-0.19 -0.61,-0.41 -0.89,-0.63 -0.29,-0.23 -0.57,-0.48 -0.84,-0.74 -0.27,-0.26 -0.54,-0.53 -0.79,-0.82 -0.25,-0.29 -0.49,-0.59 -0.72,-0.9 -0.23,-0.31 -0.46,-0.63 -0.67,-0.96 -0.21,-0.34 -0.41,-0.68 -0.6,-1.03 -0.18,-0.35 -0.36,-0.71 -0.53,-1.07 -0.16,-0.37 -0.32,-0.74 -0.46,-1.12 -0.19,-0.51 -0.36,-1.05 -0.51,-1.6 -0.15,-0.55 -0.28,-1.12 -0.38,-1.69 -0.1,-0.58 -0.17,-1.16 -0.21,-1.74 -0.04,-0.59 -0.04,-1.17 -0.02,-1.76 0.03,-0.58 0.09,-1.16 0.2,-1.72 0.1,-0.57 0.24,-1.13 0.42,-1.67 0.19,-0.53 0.41,-1.06 0.69,-1.56 0.27,-0.5 0.59,-0.97 0.96,-1.42 0.18,-0.21 0.36,-0.42 0.56,-0.61 0.19,-0.2 0.4,-0.39 0.62,-0.56 0.22,-0.18 0.44,-0.35 0.68,-0.51 0.24,-0.16 0.49,-0.3 0.75,-0.44 0.27,-0.14 0.54,-0.27 0.82,-0.38 0.29,-0.12 0.58,-0.22 0.89,-0.31 0.31,-0.1 0.63,-0.18 0.96,-0.24 0.33,-0.07 0.67,-0.13 1.03,-0.17 0.74,-0.08 1.46,-0.09 2.16,-0.03 0.7,0.06 1.37,0.19 2.02,0.39 0.64,0.2 1.26,0.46 1.84,0.77 0.59,0.32 1.14,0.69 1.65,1.11 2.04,1.69 3.34,3.97 3.91,6.55 0.14,0.53 -0.1,1.19 -0.81,1.29 -0.48,0.07 -1.09,-0.08 -1.2,-0.62zm-6.73 2.27c0.07,0.14 0.11,0.28 0.17,0.43 0.06,0.14 0.13,0.28 0.2,0.43 0.08,0.14 0.16,0.29 0.24,0.43 0.09,0.15 0.18,0.29 0.27,0.43 0.1,0.15 0.21,0.29 0.32,0.43 0.11,0.14 0.22,0.28 0.35,0.41 0.12,0.14 0.25,0.27 0.39,0.4 0.14,0.13 0.28,0.25 0.44,0.38 0.15,0.12 0.31,0.24 0.48,0.35 0.17,0.11 0.35,0.22 0.53,0.32 0.19,0.1 0.38,0.2 0.58,0.29 0.15,0.07 0.3,0.13 0.45,0.19 0.15,0.05 0.31,0.11 0.47,0.16 0.16,0.05 0.33,0.1 0.5,0.14 0.17,0.04 0.35,0.08 0.53,0.12 0.18,0.03 0.37,0.06 0.56,0.09 0.19,0.03 0.38,0.05 0.58,0.07 0.21,0.01 0.41,0.03 0.62,0.03 0.21,0.01 0.43,0.01 0.65,0.01 0.21,0 0.4,0.03 0.56,0.09 0.17,0.05 0.31,0.14 0.43,0.23 0.12,0.1 0.21,0.22 0.27,0.34 0.07,0.12 0.1,0.25 0.11,0.39 0.01,0.13 -0.02,0.26 -0.07,0.39 -0.06,0.12 -0.15,0.24 -0.27,0.34 -0.13,0.1 -0.29,0.18 -0.49,0.24 -0.2,0.06 -0.43,0.09 -0.71,0.09 -0.25,0 -0.5,-0.01 -0.74,-0.02 -0.24,-0.01 -0.48,-0.03 -0.71,-0.05 -0.23,-0.02 -0.46,-0.05 -0.67,-0.08 -0.22,-0.04 -0.44,-0.08 -0.65,-0.12 -0.21,-0.04 -0.41,-0.09 -0.61,-0.14 -0.2,-0.05 -0.4,-0.11 -0.59,-0.17 -0.18,-0.06 -0.37,-0.13 -0.55,-0.2 -0.18,-0.06 -0.35,-0.14 -0.52,-0.21 -0.26,-0.12 -0.51,-0.24 -0.75,-0.38 -0.24,-0.13 -0.47,-0.27 -0.69,-0.41 -0.21,-0.15 -0.42,-0.3 -0.62,-0.46 -0.19,-0.15 -0.38,-0.31 -0.56,-0.48 -0.18,-0.17 -0.35,-0.34 -0.51,-0.51 -0.15,-0.18 -0.3,-0.35 -0.45,-0.53 -0.14,-0.18 -0.27,-0.36 -0.4,-0.55 -0.12,-0.18 -0.24,-0.37 -0.35,-0.55 -0.1,-0.18 -0.2,-0.37 -0.3,-0.55 -0.09,-0.19 -0.18,-0.37 -0.25,-0.55 -0.08,-0.19 -0.15,-0.37 -0.22,-0.55 -0.06,-0.18 -0.12,-0.35 -0.18,-0.52 -0.05,-0.18 -0.1,-0.35 -0.14,-0.51 -0.04,-0.17 -0.07,-0.33 -0.1,-0.48 -0.03,-0.16 -0.06,-0.31 -0.08,-0.45 -0.02,-0.15 -0.03,-0.28 -0.04,-0.41 -0.01,-0.25 0.02,-0.45 0.07,-0.62 0.05,-0.17 0.13,-0.3 0.23,-0.4 0.1,-0.1 0.22,-0.17 0.34,-0.21 0.13,-0.04 0.26,-0.05 0.39,-0.03 0.14,0.01 0.27,0.05 0.4,0.1 0.12,0.06 0.24,0.14 0.34,0.24 0.47,0.45 0.31,1.7 0.75,2.58z"/>
  </g>
 </g>
</svg>
